<svg width="254" height="162" viewBox="0 0 254 162" fill="none" xmlns="http://www.w3.org/2000/svg">
<ellipse cx="136.599" cy="127.212" rx="116.407" ry="11.4616" fill="black"/>
<path d="M80.3798 101.165C85.251 102.598 95.5426 112.507 100.079 117.283L51.7259 131.252L43.846 128.028L11.9685 132.684L3.73047 131.252L11.2521 122.297L31.6681 111.194L56.7403 103.314C62.5905 102.001 75.5087 99.7323 80.3798 101.165Z" fill="#AF775B"/>
<path d="M36.3242 110.836C28.5407 112.258 -1.55657 128.412 5.57537 131.724C12.7073 135.037 37.2974 126.855 44.2039 127.67C49.7292 128.322 50.9634 131.224 51.2012 131.203" stroke="black" stroke-width="5" stroke-linecap="round" stroke-linejoin="round"/>
<path d="M232.59 99.9909C232.59 100.85 236.65 115.87 238.679 123.272C246.989 132.441 160.358 132.943 120.123 132.943C121.914 129.122 133.949 121.983 134.809 116.825C135.668 111.667 136.361 100.827 136.599 96.0509L133.734 90.6783L115.109 81.3658L88.9622 72.0532L82.1568 64.5316L83.5895 59.8753L110.094 67.7551L131.227 68.8297L143.763 62.7407L128.361 64.5316L107.587 54.1445L90.753 46.981L71.4116 48.4137L67.4717 30.505H74.6352L85.0222 25.4905L87.1713 15.1035L86.0968 7.22363L126.929 18.6852L141.614 17.6107L153.792 9.73086L165.253 7.22363L204.294 18.6852L216.472 41.9666L228.292 48.4137L230.083 54.1445L224.352 78.5004C227.098 85.3057 232.59 99.1312 232.59 99.9909Z" fill="#F3B253"/>
<path d="M223.279 94.9764C218.265 91.3947 221.846 83.1567 222.563 78.8586C221.011 81.127 217.62 86.3086 216.474 88.8875C215.041 92.111 210.385 97.1255 203.579 96.4091C196.774 95.6928 187.103 99.6327 192.118 104.647C197.132 109.662 203.221 117.541 192.118 119.332C181.014 121.123 162.389 122.198 152.361 120.765C142.332 119.332 147.346 97.4837 146.63 93.1856C145.913 88.8875 161.315 74.2023 152.361 81.3658C143.406 88.5293 133.735 77.4259 128.721 78.1422C123.707 78.8586 108.663 72.0533 97.9179 68.8297C87.1726 65.6061 87.5293 67.7551 88.6038 70.2623C89.6783 72.7695 108.305 78.8586 115.468 80.2913C122.632 81.724 135.526 88.5293 136.243 89.962C136.959 91.3947 137.317 96.7673 137.675 106.438C138.033 116.109 132.303 118.616 129.795 122.198C127.79 125.063 121.796 130.794 119.05 133.301H149.495C151.286 133.301 222.203 131.868 233.306 127.57C239.024 125.357 234.741 126.138 231.875 123.63C229.01 121.123 226.861 111.452 227.935 107.513C229.01 103.573 228.294 98.5582 223.279 94.9764Z" fill="#AF775B"/>
<path d="M85.7381 24.7742L87.1708 9.37268L83.2309 7.22363L72.4857 9.37268L66.7549 12.5963L67.4712 28.7141H77.1419L85.7381 24.7742Z" fill="#161514"/>
<path d="M112.243 62.3825L120.481 69.546L140.897 65.606L124.421 62.3825L98.2745 49.13L86.4548 46.981L74.9932 49.13L98.2745 58.8007L112.243 62.3825Z" fill="#F15F50"/>
<path d="M121.198 131.152C123.705 130.077 134.808 120.407 136.241 111.81C137.674 103.214 138.032 96.7671 136.241 91.7527C130.271 88.1709 117.114 80.8641 112.243 80.2911C106.154 79.5747 84.3056 70.6204 82.8729 65.2477C81.4403 59.8751 82.1566 58.4424 88.6037 60.9496C95.0509 63.4569 117.974 70.6203 122.272 69.904C126.57 69.1876 141.255 69.5458 146.986 58.4424" stroke="black" stroke-width="5" stroke-linecap="round" stroke-linejoin="round"/>
<path d="M143.763 62.7405C142.331 63.4569 132.302 67.0386 122.273 62.7405C112.244 58.4424 96.1262 45.9063 87.53 46.9808C78.9338 48.0554 73.5612 47.6972 73.9194 49.1299C74.2776 50.5626 68.5467 45.9063 67.8303 34.0866C67.114 22.2668 65.6813 12.2379 67.8303 11.1634C69.9794 10.0889 77.8589 7.58165 81.7988 7.58165C102.636 7.58165 129.138 30.0948 149.136 12.9543C154.15 8.65618 160.955 5.4326 170.984 8.298C181.013 11.1634 197.771 15.6859 199.996 16.8942C212.142 23.4874 211.042 39.1192 220.412 44.4736" stroke="black" stroke-width="5" stroke-linecap="round" stroke-linejoin="round"/>
<path d="M208.95 43.0407C214.323 42.3244 218.979 43.3989 224.352 46.6225C229.724 49.8461 233.306 48.4134 228.292 63.8149C223.277 79.2164 217.546 93.9016 211.457 96.4088C205.368 98.916 195.698 97.1251 188.176 99.9905C180.654 102.856 178.863 105.363 178.147 106.796C177.431 108.229 173.849 91.3943 170.984 87.8126C168.118 84.2308 173.133 73.4856 177.073 69.1875C181.013 64.8894 188.176 51.6369 186.743 46.6225" stroke="black" stroke-width="5" stroke-linecap="round" stroke-linejoin="round"/>
<path d="M73.5605 49.1299C75.7096 49.8462 91.4693 59.1588 101.14 59.5169C108.877 59.8035 117.735 66.561 121.198 69.904" stroke="black" stroke-width="5" stroke-linecap="round" stroke-linejoin="round"/>
<path d="M67.1133 28.3559C68.546 29.7886 70.3369 30.5049 75.3513 29.4304C80.3657 28.3559 85.3802 29.0722 86.0965 22.6251C86.8129 16.1779 87.8874 10.8053 86.0965 8.65625" stroke="black" stroke-width="5" stroke-linecap="round" stroke-linejoin="round"/>
<path d="M188.892 74.202C194.623 69.9039 197.489 53.4279 197.489 51.2788C198.802 51.2788 201.643 53.213 202.503 60.9495C203.577 70.6202 212.174 61.6659 211.099 71.3366C210.024 81.0073 206.085 80.291 194.981 83.1564C183.878 86.0218 187.46 93.5434 185.311 88.8871C183.162 84.2309 183.162 78.5001 188.892 74.202Z" fill="#AF775B"/>
<path d="M106.473 110.376C113.772 112.455 121.198 116.679 129.409 134.133C124.761 134.409 107.892 134.332 102.486 133.934C97.0807 133.537 97.8171 133.852 95.9446 132.528C94.0722 131.203 89.9087 133.603 87.1754 135.918C84.4421 138.232 69.5785 153.824 67.1392 155.045C64.6999 156.266 43.268 157.894 37.5472 158.233C31.8265 158.572 30.8174 159.708 29.6998 152.957C28.5823 146.206 42.5245 139.281 46.0364 137.996C49.5483 136.712 58.9242 125.392 68.8906 117.984C78.857 110.577 99.1737 108.297 106.473 110.376Z" fill="#F3B253" stroke="black" stroke-width="5" stroke-linecap="round" stroke-linejoin="round"/>
<path d="M39.9088 147.763C33.8915 148.05 31.7733 152.165 32.0121 154.433C32.1629 155.866 53.09 153.709 59.9669 153.136C68.5631 152.42 73.9357 144.898 80.0247 138.451C86.1136 132.004 91.4863 129.497 95.068 129.497C98.6497 129.497 98.9764 130.077 106.14 130.435C109.002 130.578 102.59 124.84 95.068 120.9C87.5463 116.96 67.1304 127.347 65.3395 138.451C63.5487 149.554 47.4305 147.405 39.9088 147.763Z" fill="#AF775B"/>
<ellipse cx="157.906" cy="23.9373" rx="3.93992" ry="3.58175" transform="rotate(9.40615 157.906 23.9373)" fill="black"/>
<ellipse cx="134.65" cy="16.9014" rx="3.93992" ry="3.58175" transform="rotate(-22.2776 134.65 16.9014)" fill="black"/>
<path d="M169.551 18.3093C167.76 17.2347 164.178 10.4294 154.149 13.2948" stroke="black" stroke-width="5" stroke-linecap="round"/>
<path d="M143.341 9.26705C141.274 8.96992 135.336 4.08276 127.199 10.6085" stroke="black" stroke-width="5" stroke-linecap="round"/>
</svg>
