<svg width="708" height="329" viewBox="0 0 708 329" fill="none" xmlns="http://www.w3.org/2000/svg">
<ellipse cx="591.407" cy="316.735" rx="116.407" ry="11.4616" fill="black"/>
<ellipse cx="116.407" cy="172.735" rx="116.407" ry="11.4616" fill="black"/>
<path d="M531 317.273C549.5 321.273 651.5 324.773 677.5 314.773C677.5 259.273 673 214.774 618.5 125.273C539.45 -4.54236 364 -7.22672 242 11.2733C120 29.7733 26.5 139.773 26.5 172.273C46.5 178.273 145.5 182.273 186 175.273C198 148.273 272.938 70.0096 378 92.7732C528 125.273 531 289.273 531 317.273Z" fill="#F3B253" stroke="black" stroke-width="5"/>
<path d="M547.802 311.464C555.402 314.664 604.968 312.797 628.802 311.464C605.802 311.464 571.302 303.964 564.302 296.964C557.302 289.964 498.302 146.464 524.802 216.464C551.302 286.464 538.302 307.464 547.802 311.464Z" fill="#AF775B"/>
<path d="M177 162.795C168.5 167.795 73.5 170.295 55 162.795C78 160.795 156 151.295 177 138.295C226.422 107.701 275.5 67.7733 338.5 66.7733C401.5 65.7733 433 104.773 423 99.2733C413 93.7733 399.5 80.7733 322 80.2733C244.5 79.7733 185.5 157.795 177 162.795Z" fill="#AF775B"/>
</svg>
