<svg width="406" height="429" viewBox="0 0 406 429" fill="none" xmlns="http://www.w3.org/2000/svg">
<ellipse cx="116.407" cy="407.021" rx="116.407" ry="11.4616" fill="black"/>
<path d="M267.198 424.213H235.321C234.843 423.736 234.174 421.921 235.321 418.483C236.753 414.184 244.275 411.319 248.931 407.737C253.588 404.156 255.02 402.365 258.244 382.307C261.467 362.249 257.527 343.266 257.169 340.759C256.811 338.251 247.857 325.715 242.484 324.999C234.604 329.655 212.756 358.667 207.025 367.264C201.294 375.86 200.578 384.814 200.936 395.918C201.222 404.8 200.936 403.797 200.936 408.812C200.936 408.812 171.207 413.468 118.914 413.11C66.6204 412.752 35.8174 408.812 35.8174 408.812L46.5626 397.708L110.318 342.191L146.852 296.703L164.044 254.439L177.655 218.263L197.712 191.042L215.263 181.729L266.482 176.356L284.391 177.431L324.148 148.777L349.937 121.198L362.473 94.3345L364.622 65.6805L355.309 33.0866L344.564 11.238L343.489 3.71631L359.965 21.2669L369.636 34.1612L366.413 20.5505L377.158 30.5794L380.381 49.5627L381.814 33.803L387.545 43.8319L389.694 58.517L392.201 45.6227L399.006 59.5916L398.29 69.9786L395.067 80.7239L399.723 73.2022L401.872 73.5604L402.588 86.4547L395.067 101.856L382.53 119.765L395.783 112.243L388.978 125.138L362.473 145.195L349.937 160.597L327.73 172.058L296.927 187.102L294.778 193.907L301.583 218.263L299.076 249.424L294.778 269.482L296.927 282.018C299.673 288.943 305.165 302.864 305.165 303.15C305.165 303.437 308.508 306.374 310.179 307.807L306.956 309.597L308.746 315.328H303.374L309.105 325.715L304.807 328.223L297.285 346.489L290.121 385.53V407.737L285.823 420.632L267.198 424.213Z" fill="#F3B253"/>
<path d="M211.323 309.956C207.025 302.434 207.383 279.153 209.533 274.854C209.533 287.749 220.278 291.689 220.994 296.345C221.567 300.07 232.456 314.134 237.828 320.701C235.44 324.163 228.229 332.95 218.487 340.4C206.309 349.713 198.429 376.934 193.773 388.038C189.116 399.141 196.996 406.305 194.847 406.305C192.698 406.305 187.683 404.514 162.611 408.812C137.539 413.11 67.695 408.454 97.7816 408.095C121.851 407.809 162.731 401.768 180.162 398.783C177.655 393.052 193.414 360.458 206.667 342.908C219.919 325.357 215.621 317.477 211.323 309.956Z" fill="#AF775B"/>
<path d="M35.459 407.021C67.3365 380.158 121.231 336.522 145.677 297.136C170.124 257.75 171.574 187.477 225.025 179.393C278.475 171.308 274.125 181.051 285.105 176.698C296.085 172.344 351.607 131.093 360.102 101.657C368.596 72.2208 364.659 47.5527 346.842 14.5928C329.026 -18.3672 367.56 28.8961 369.01 34.0785C370.46 39.2609 368.596 25.7867 365.695 21.2262C362.795 16.6657 376.675 26.6159 378.54 35.9441C380.404 45.2724 379.576 51.6986 380.197 50.6621C380.819 49.6256 381.855 38.0172 381.026 34.0785C380.197 30.1399 389.106 41.5411 388.691 55.2226C388.277 68.9041 392.213 48.7965 391.177 45.2724C390.142 41.7484 404.022 57.2956 397.6 72.8427C391.177 88.3898 399.05 75.5375 399.879 72.8427C400.707 70.1479 407.751 78.647 398.843 96.4743C389.934 114.302 380.612 118.448 381.44 119.691C382.269 120.935 392.006 116.167 395.942 111.4C399.879 106.632 391.177 126.947 377.504 134.824C363.831 142.701 352.229 153.895 350.364 160.321C348.5 166.747 294.635 182.709 294.635 190.794C294.635 198.878 303.75 207.792 301.679 226.034C299.607 244.276 297.742 265.627 294.635 272.261" stroke="black" stroke-width="5" stroke-linecap="round"/>
<path d="M291.303 220.77C287.558 230.932 291.928 268.052 294.216 271.578C296.505 275.103 299.21 301.44 307.116 304.759C315.023 308.077 308.365 309.528 306.492 308.699C304.62 307.869 306.908 312.017 310.029 313.468C313.15 314.92 306.7 316.372 304.62 315.335C302.539 314.298 306.7 324.874 310.029 324.667C313.358 324.46 305.868 326.326 303.995 330.474C302.123 334.621 286.518 372.364 289.847 399.738C293.176 427.112 281.525 423.172 248.651 425.453C215.777 427.734 245.946 409.07 251.563 406.789C257.181 404.508 260.926 361.58 259.678 351.004C258.43 340.428 254.684 331.096 239.912 321.349C225.14 311.602 212.864 284.85 217.233 263.905" stroke="black" stroke-width="5" stroke-linecap="round"/>
<path d="M236.037 306.374C223.859 296.345 227.441 291.331 229.59 274.497C232.814 292.763 244.275 300.285 264.333 311.03C284.39 321.776 279.734 320.701 276.869 360.1C274.003 399.5 258.244 409.887 264.333 400.216C270.422 390.545 264.333 347.922 264.333 335.744C264.333 323.567 248.215 316.403 236.037 306.374Z" fill="#AF775B"/>
<path d="M337.759 157.015C332.028 164.537 305.881 177.431 299.792 181.013C313.044 175.999 340.266 164.68 343.131 159.523C346.713 153.075 383.963 125.138 376.083 128.003C368.203 130.869 379.259 113.093 383.247 108.662C386.47 105.08 398.184 85.0142 395.066 86.8131C385.754 92.1857 392.201 62.8154 388.977 69.6207C385.754 76.426 383.605 51.7119 382.53 57.4427C381.456 63.1735 382.172 72.8442 382.53 86.8131C382.889 100.782 372.143 117.616 369.994 125.138C367.845 132.659 343.489 149.494 337.759 157.015Z" fill="#AF775B"/>
</svg>
