<svg width="3649" height="655" viewBox="0 0 3649 655" fill="none" xmlns="http://www.w3.org/2000/svg">
<path d="M0.517578 0H3648.02V630H0.517578V0Z" fill="#B0D975"/>
<path d="M1699.62 160.762C1908.49 160.762 1750.27 94.0001 1935.63 94H3648.02L3648.02 654.5C3404.26 654.5 108.684 654 0.50036 654C0.498791 635.892 0.502904 602.546 0.502229 585H831.059C1258.89 585 1119.61 523.181 1049.74 523.181C853.355 523.181 706.518 266.626 1231.91 266.626C1320.63 266.626 1325.02 224.185 1173.9 224.185C1022.78 224.185 1054.48 160.762 1176.79 160.762H1699.62Z" fill="#3288BC"/>
<path d="M1685.32 476.146C1613.24 465.7 1620.95 443.129 1634.12 427.686C1637.52 423.71 1635.3 420.839 1631.13 423.984C1606.24 442.739 1592.71 470.181 1668.82 482.646C1761.62 497.846 1841.82 488.98 1870.32 482.646C1854.49 484.98 1768.12 488.146 1685.32 476.146Z" fill="#1F5C81"/>
<path d="M1245.68 605.146C1299.18 567.146 1231.06 522.646 1189.06 512.646C1239.56 512.646 1326.68 583.146 1280.18 618.646C1233.68 654.146 963.179 630.146 995.179 628.646C1027.18 627.146 1192.18 643.146 1245.68 605.146Z" fill="#1F5C81"/>
<path d="M1074.56 300.146C970.556 300.146 924.056 372.646 921.056 389.646C916.291 416.646 925.679 382.294 961.056 347.646C1009.56 300.146 1178.56 300.146 1074.56 300.146Z" fill="#1F5C81"/>
<path d="M1668.54 410.646C1658.04 420.646 1651.04 461.646 1730.04 458.646C1809.04 455.646 1925.54 451.146 1968.54 458.646C2011.54 466.146 1880.04 466.646 1902.54 474.146C1925.04 481.646 2121.04 469.146 2153.54 474.146" stroke="white" stroke-width="5" stroke-linecap="round"/>
<path d="M1107.55 584.865C1139.91 583.64 1180.19 570.76 1156.53 549.348" stroke="white" stroke-width="5" stroke-linecap="round"/>
<path d="M1052.06 609.646C1094.06 609.646 1179.82 604.684 1198.06 585.146C1212.06 570.146 1204.56 536.646 1174.56 528.646" stroke="white" stroke-width="5" stroke-linecap="round"/>
<path d="M2755.54 94.1465C2705.48 94.1465 2380.57 94.1465 2350.54 94.1465" stroke="white" stroke-width="5"/>
<path d="M2563.04 110.646C2531.44 111.046 2334.87 110.813 2240.54 110.646" stroke="white" stroke-width="5" stroke-linecap="round"/>
<path d="M947.557 453.147C970.057 452.147 1050.56 461.147 1064.06 457.147" stroke="white" stroke-width="5" stroke-linecap="round"/>
<path d="M1581.04 465.646C1581.04 471.146 1587.04 490.646 1575.04 492.646C1563.04 494.646 1453.04 496.646 1389.04 492.646" stroke="white" stroke-width="5" stroke-linecap="round"/>
<path d="M1417.54 178.647C1356.54 176.147 1214.04 173.147 1239.04 186.647C1264.04 200.147 1364.54 202.646 1335.04 229.646C1305.54 256.646 1384.04 277.146 1251.54 281.646" stroke="white" stroke-width="5" stroke-linecap="round"/>
<path d="M1403.04 197.647C1376.54 194.147 1344.54 198.147 1367.54 208.147C1390.54 218.147 1352.54 229.147 1357.54 242.147" stroke="white" stroke-width="5" stroke-linecap="round"/>
<path d="M918.057 583.646C1038.56 573.646 1109.56 579.646 1126.56 554.146C1143.56 528.646 1078.56 528.146 1042.06 522.646C1005.56 517.146 924.557 503.646 892.057 449.646" stroke="black" stroke-width="5" stroke-linecap="round"/>
<path d="M1035.06 282.647C1020.56 271.147 1024.06 253.647 1035.06 265.647C1035.06 243.647 1048.06 241.147 1045.56 256.147C1050.56 260.147 1061.06 243.147 1059.56 256.147C1058.06 269.147 1036.56 277.647 1046.56 280.147C1056.56 282.647 1067.56 272.147 1127.56 270.647" stroke="black" stroke-width="5" stroke-linecap="round"/>
<path d="M1826.04 130.647C1828.88 121.98 1842.34 103.147 1873.54 97.1466C1904.74 91.1466 2023.88 90.6466 2079.54 91.1466" stroke="black" stroke-width="5" stroke-linecap="round"/>
<path d="M2240.29 319.5L2144.99 322.5L1841.12 325.5L1810.19 314.5L1775.26 234V228L1788.73 205.5L1810.19 173.5L1819.17 144L1825.66 98.5L1819.17 69.5L1799.71 50L1761.29 33.5H1721.37L1681.46 45.5L1659 66L1655.01 87L1663.99 105L1686.45 119L1693.93 110.5L1697.92 81.5L1714.39 66L1746.82 58.5L1775.26 66L1792.23 87L1794.72 113L1786.74 136L1729.86 205.5L1693.93 266.5L1681.46 307.5L1686.45 373L1687.94 385.5L1693.93 406L1709.9 424.5L1740.33 432.5L2264.24 430.5L2281.21 422.5L2297.17 403L2300.67 369.5L2290.19 347V330.5L2300.67 319.5L2326.61 312.5L2345.57 307.5L2329.61 303L2321.12 297L2335.59 280.5L2343.58 269L2326.61 277L2332.6 254.5L2329.61 232L2321.12 229.5V238.5L2305.16 277L2279.21 303L2240.29 319.5Z" fill="white"/>
<path d="M2112.06 347.5C2110.06 338.5 2129.02 325.5 2138.5 323.5L2201.37 319C2199.71 321.167 2193.09 325.6 2179.92 326C2163.45 326.5 2151.98 333 2138.5 337.5C2125.03 342 2122.04 353 2126.53 371C2131.02 389 2096.59 395 2103.08 383.5C2109.56 372 2114.06 356.5 2112.06 347.5Z" fill="#9FC2D8"/>
<path d="M1757.8 208C1745.32 226 1739.84 263.5 1741.33 279C1744.82 275.167 1752.31 265.8 1754.31 259C1756.8 250.5 1770.27 243 1768.78 230C1767.28 217 1808.19 154 1811.69 134C1815.18 114 1803.7 85.5001 1791.73 67.0001C1779.75 48.5001 1745.32 52.0001 1732.35 53.0001C1719.38 54.0001 1694.43 66.0001 1722.37 59.0001C1750.31 52.0001 1765.28 57.0001 1774.76 61.0001L1774.8 61.0163C1784.28 65.0137 1796.22 70.0554 1801.21 111C1806.2 152 1770.27 190 1757.8 208Z" fill="#9FC2D8"/>
<path d="M1773.27 234.5C1776.26 207 1816.67 198.5 1825.16 105C1833.64 11.5001 1663.49 17.5001 1657.01 77.5001C1653.51 100.5 1666.49 104 1666.49 109C1666.49 114 1678.46 96.0001 1680.46 100.5C1682.45 105 1680.96 120.5 1684.45 119C1687.94 117.5 1694.43 112.5 1695.93 87.5001C1697.42 62.5001 1777.76 38.0001 1793.22 92.0001C1808.69 146 1738.34 167 1691.93 272C1685.95 284 1681.06 300.9 1681.46 312.5" stroke="black" stroke-width="5"/>
<path d="M1671.48 137C1673.07 130.2 1681.12 122.166 1684.95 119C1683.45 118 1680.56 113.6 1680.96 104C1681.36 94.3998 1672.81 102.666 1668.48 108C1667.49 109.5 1665.59 114.4 1665.99 122C1666.49 131.5 1652.02 147.5 1652.52 157.5C1653.02 167.5 1668.98 164 1666.99 159C1664.99 154 1669.48 145.5 1671.48 137Z" fill="#F55959" stroke="black" stroke-width="5"/>
<ellipse cx="1671.48" cy="83" rx="8.98129" ry="9" fill="black"/>
<path d="M1685.95 373.5C1690.44 400.5 1693.93 432 1748.32 432C1802.7 432 2211.35 432 2252.27 432C2293.18 432 2312.64 382.5 2295.18 354C2277.71 325.5 2298.67 318.5 2321.62 314C2344.58 309.5 2353.56 309.5 2339.59 304C2325.61 298.5 2313.64 303 2323.12 293C2332.6 283 2352.56 264.5 2342.08 269C2331.6 273.5 2319.13 282.5 2326.61 272C2334.1 261.5 2334.6 233.5 2326.11 229.5C2317.63 225.5 2324.12 234 2319.13 247C2314.14 260 2304.66 286.5 2276.72 304C2248.77 321.5 2228.82 321 2202.37 321C2181.22 321 2155.64 321 2145.49 321" stroke="white" stroke-width="5"/>
<path d="M1767.28 420.5C1717.38 420 1720.38 412 1710.9 395.5C1727.66 407.9 1746.16 410.667 1753.31 410.5C1913.31 411.333 2235.5 412.5 2244.28 410.5C2255.26 408 2262.75 402 2267.24 391C2271.73 380 2271.73 355 2273.72 380C2275.72 405 2259.25 420.5 2244.28 420.5H2144.99C2035.72 420.667 1807.19 420.9 1767.28 420.5Z" fill="#9FC2D8"/>
<path d="M2155.47 373C2155.47 406.5 2120.04 412 2095.59 412H2141C2146.49 410.167 2157.76 403.6 2158.96 392C2160.46 377.5 2155.47 339.5 2155.47 373Z" fill="#9FC2D8"/>
<path d="M1882.54 214L1928.44 246.5L1982.83 303.5C1991.48 301 2010.27 295.3 2016.26 292.5C2023.74 289 2037.71 256.5 2047.19 243.5C2056.68 230.5 2063.66 186.5 2077.63 151.5C2091.6 116.5 2110.56 117 2117.05 112C2123.54 107 2136.51 115 2132.52 112C2128.53 109 2132.02 94.5 2132.52 91.5C2133.02 88.5 2129.52 88.5 2127.53 84.5C2125.53 80.5 2137.01 74.5 2142 65C2145.99 57.4 2152.97 55.1667 2155.97 55L2182.41 60L2187.9 99.5L2176.92 117C2179.42 118 2187.8 123.2 2201.37 136C2218.34 152 2220.83 172 2217.34 182.5C2213.85 193 2217.34 197 2223.33 223.5C2229.32 250 2225.82 274.5 2220.83 297C2215.84 319.5 2198.88 320 2182.41 320C2165.95 320 2152.48 322 2131.52 324C2110.56 326 2093.1 339.5 2092.6 353.5C2092.1 367.5 2077.63 385.5 2069.15 388C2060.67 390.5 2065.16 381 2069.15 361.5C2072.34 345.9 2083.79 330 2089.11 324L2045.2 318L1877.05 313.5C1876.05 314 1869.96 313 1853.6 305C1833.14 295 1833.14 303 1811.19 312C1789.23 321 1727.86 375.5 1713.89 381.5C1699.92 387.5 1686.95 373.5 1685.45 373C1684.25 372.6 1654.68 347.167 1640.04 334.5C1641.37 329.833 1644.33 319.1 1645.53 313.5C1646.73 307.9 1655.01 304.167 1659 303C1671.64 306.667 1698.82 316 1706.4 324C1715.75 333.854 1718.79 329.629 1725.08 320.892L1725.37 320.5C1737.84 285 1751.31 265 1766.78 243.5C1782.25 222 1815.68 207.5 1829.65 203C1840.82 199.4 1853.93 201.5 1859.09 203L1882.54 214Z" fill="#EC9262"/>
<path d="M2148.58 76.3848C2149.29 77.8621 2151.53 79.5417 2154.52 78.7321" stroke="black" stroke-width="5" stroke-linecap="round"/>
<path d="M2125.75 66.3848C2126.46 67.8621 2128.7 69.5417 2131.69 68.7321" stroke="black" stroke-width="5" stroke-linecap="round"/>
<path d="M2123.75 95.3389C2128.71 102.142 2141.6 108.529 2155.95 101.636" stroke="black" stroke-width="5" stroke-linecap="round"/>
<path d="M2128.74 80.5001C2131.74 76.5001 2134.4 73.6667 2137.72 71.0001C2139.88 64.6667 2148.3 52.7001 2164.67 55.5001C2185.12 59.0001 2192.61 72.0001 2188.12 92.5001C2183.63 113 2174.64 127 2154.19 122.5C2133.73 118 2124.75 110 2133.23 89.5001C2128.74 88.5001 2124.84 85.7159 2128.74 80.5001Z" stroke="black" stroke-width="5" stroke-linecap="round"/>
<path d="M2146.51 36.5606C2135.46 46.0366 2146.51 52.5514 2150 53.1437C2153.29 54.3282 2159.77 57.7633 2159.3 62.0275C2158.72 67.3578 2183.15 60.2507 2177.91 73.2803C2172.68 86.3099 2186.06 76.8338 2180.82 88.6789C2175.59 100.524 2184.89 102.893 2187.8 106.446C2190.71 110 2190.71 113.554 2204.67 102.893C2218.62 92.2324 2208.15 84.5331 2201.76 82.1641C2207.57 80.3873 2208.15 80.3873 2209.9 67.3578C2211.64 54.3282 2205.25 51.9592 2193.03 54.3282C2200.01 48.6426 2192.45 41.6935 2187.8 38.9296C2177.33 31.2303 2170.35 37.7451 2168.03 44.2599C2168.03 38.9296 2157.56 27.0845 2146.51 36.5606Z" fill="#9CA0C7"/>
<path d="M2178.96 159.855C2224.36 137.854 2246.99 318.854 2200.91 318.854C2152.01 318.854 2094.13 321.354 2092.64 350.854C2091.14 380.354 2059.21 404.354 2064.46 376.355C2070.08 346.417 2089.59 315.51 2111.37 309.355C2187.44 287.854 2183.95 279.854 2140.54 208.355" stroke="black" stroke-width="5" stroke-linecap="round"/>
<path d="M2177.14 118.5C2182.13 120 2232.53 145.5 2215.56 191" stroke="black" stroke-width="5" stroke-linecap="round"/>
<path d="M2131.74 111.5C2123.25 109 2091.87 114 2078.91 148.17C2062.91 190.366 2050.91 255 2019.47 286.5" stroke="black" stroke-width="5" stroke-linecap="round"/>
<path d="M1798.96 215.5C1868.31 175.5 1892.02 232 1948.4 256.5L1876.3 315.5C1869.15 313.5 1871.46 312.4 1849.11 302C1821.17 289 1730.36 375.5 1711.89 381.5C1693.43 387.5 1645.53 339.5 1641.54 335C1637.55 330.5 1651.02 297.5 1661.5 303.5C1671.98 309.5 1691.94 312.5 1711.89 327.5C1731.85 342.5 1729.6 255.5 1798.96 215.5Z" stroke="black" stroke-width="5"/>
<path d="M2018.97 286C2027.29 289.666 2050.71 302 2077.85 322H1887.25C1877.27 319.666 1859.71 314.2 1869.29 311C1881.26 307 1905.71 242.5 1933.65 247.5C1956.01 251.5 1982.88 284.166 1993.53 300L2018.97 286Z" fill="#9CA0C7" stroke="#9CA0C7" stroke-width="5" stroke-linecap="round"/>
<path d="M2089.61 324C2038.21 323.5 1864.08 328 1840.13 324C1816.18 320 1811.19 314 1810.19 312.5" stroke="black" stroke-width="5"/>
<path d="M1047.23 408.083C1046.85 418.363 1034.06 420.589 1022.84 414.239C981.564 396.694 973.599 419.077 963.873 424.484C954.147 429.892 944.15 427.458 937.936 413.129C931.722 398.8 917.673 414.211 925.238 411.777C930.091 410.216 937.137 417.562 930.101 418.266C925.238 418.753 923.346 419.888 933.343 423.403C944.711 427.4 939.557 441.517 947.122 443.239C953.174 444.617 1028.23 443.813 1065 443.239C1069.44 435.497 1071.61 424.457 1065.88 411.51C1054.09 384.857 1036.2 379.527 1040.13 365.82C1041.46 360.682 1046.08 353.649 1055.73 353.649C1063.57 353.649 1068.16 354.46 1075.73 347.702C1076 345.268 1071.67 348.513 1071.4 345.268C1072.57 344.007 1071.94 344.727 1073.84 341.483C1074.8 339.832 1067.35 332.561 1057.35 337.968C1046.73 343.714 1029.9 345.387 1032.01 369.12C1034.17 392.853 1047.62 397.803 1047.23 408.083Z" fill="white" stroke="black" stroke-width="5" stroke-linecap="round"/>
<path d="M1023.85 434C1020.85 434 1020.35 433 1017.86 432C1009.71 433.333 993.011 436 991.414 436C989.418 436 964.969 435.5 960.978 436C956.986 436.5 950.499 434 948.004 432C945.51 430 950.998 437 953.493 438C955.988 439 1013.37 437 1020.85 437C1028.34 437 1026.84 434 1023.85 434Z" fill="#9FC2D8"/>
<path d="M1080.65 344.067C1078.85 344.461 1076.71 346.057 1075.87 347C1075.61 346.631 1074.45 345.917 1071.91 346.016C1069.38 346.114 1071.56 344.007 1072.97 342.941C1073.36 342.695 1074.12 341.302 1076.12 341.401C1078.63 341.524 1083.39 338.881 1086.03 339.004C1088.66 339.127 1087.74 343.064 1086.42 342.572C1085.1 342.079 1082.89 343.575 1080.65 344.067Z" fill="#F55959" stroke="black" stroke-width="5" stroke-linecap="round"/>
<path d="M984.297 420C979.669 422.846 972.863 426.262 977.491 425.977C982.119 425.692 982.119 428.823 977.491 431.1C972.863 433.377 990.287 430.816 985.386 433.377C980.486 435.939 976.13 438.501 993.281 435.939C1010.43 433.377 1028.94 430.246 1024.04 425.977" stroke="black" stroke-width="5" stroke-linecap="round"/>
<ellipse cx="1066.26" cy="341" rx="1.49688" ry="1" fill="black"/>
<ellipse rx="1.3516" ry="1.35192" transform="matrix(0.745471 0.666538 -0.664995 0.746848 1073.38 337.328)" fill="black"/>
<path d="M1062.77 341C1063.02 339.333 1065.26 337 1066.76 337" stroke="black" stroke-width="5" stroke-linecap="round"/>
<path d="M1070.54 334.423C1071.64 333.594 1074.71 333.802 1075.92 334.883" stroke="black" stroke-width="5" stroke-linecap="round"/>
<path d="M1040.81 435C1060.77 433 1060.77 426.5 1057.78 417C1063.26 419.5 1063.26 431.5 1062.27 435C1061.27 438.5 1059.27 436 1047.8 438C1036.32 440 1020.85 437 1040.81 435Z" fill="#9FC2D8"/>
<path d="M1212.7 445.083C1212.32 455.363 1199.52 457.589 1188.3 451.239C1147.03 433.694 1139.06 456.077 1129.34 461.484C1119.61 466.892 1109.61 464.458 1103.4 450.129C1097.19 435.8 1083.14 451.211 1090.7 448.777C1095.56 447.216 1102.6 454.562 1095.57 455.266C1090.7 455.753 1088.81 456.888 1098.81 460.403C1110.18 464.4 1105.02 478.517 1112.59 480.239C1118.64 481.617 1193.69 480.813 1230.46 480.239C1234.9 472.497 1237.08 461.457 1231.35 448.51C1219.55 421.857 1201.66 416.527 1205.6 402.82C1206.92 397.682 1211.55 390.649 1221.2 390.649C1229.03 390.649 1233.63 391.46 1241.19 384.702C1241.46 382.268 1237.14 385.513 1236.87 382.268C1238.04 381.007 1237.41 381.727 1239.3 378.483C1240.26 376.832 1232.82 369.561 1222.82 374.968C1212.2 380.714 1195.37 382.387 1197.48 406.12C1199.63 429.853 1213.08 434.803 1212.7 445.083Z" fill="white" stroke="black" stroke-width="5" stroke-linecap="round"/>
<path d="M1188.95 471C1185.96 471 1185.46 470 1182.96 469C1174.81 470.333 1158.11 473 1156.52 473C1154.52 473 1130.07 472.5 1126.08 473C1122.09 473.5 1115.6 471 1113.11 469C1110.61 467 1116.1 474 1118.6 475C1121.09 476 1178.47 474 1185.96 474C1193.44 474 1191.94 471 1188.95 471Z" fill="#9FC2D8"/>
<path d="M1246.11 381.067C1244.32 381.461 1242.17 383.057 1241.34 384C1241.07 383.631 1239.91 382.917 1237.38 383.016C1234.85 383.114 1237.03 381.007 1238.43 379.941C1238.83 379.695 1239.58 378.302 1241.59 378.401C1244.09 378.524 1248.85 375.881 1251.49 376.004C1254.13 376.127 1253.21 380.064 1251.89 379.572C1250.57 379.079 1248.35 380.575 1246.11 381.067Z" fill="#F55959" stroke="black" stroke-width="5" stroke-linecap="round"/>
<path d="M1149.76 457C1145.13 459.846 1138.33 463.262 1142.96 462.977C1147.58 462.692 1147.58 465.823 1142.96 468.1C1138.33 470.377 1155.75 467.816 1150.85 470.377C1145.95 472.939 1141.6 475.501 1158.75 472.939C1175.9 470.377 1194.41 467.246 1189.51 462.977" stroke="black" stroke-width="5" stroke-linecap="round"/>
<ellipse cx="1231.72" cy="378" rx="1.49688" ry="1" fill="black"/>
<ellipse rx="1.3516" ry="1.35192" transform="matrix(0.745471 0.666538 -0.664995 0.746848 1238.84 374.328)" fill="black"/>
<path d="M1228.23 378C1228.48 376.333 1230.73 374 1232.22 374" stroke="black" stroke-width="5" stroke-linecap="round"/>
<path d="M1236 371.423C1237.1 370.594 1240.17 370.802 1241.38 371.883" stroke="black" stroke-width="5" stroke-linecap="round"/>
<path d="M1205.91 472C1225.87 470 1225.87 463.5 1222.88 454C1228.37 456.5 1228.37 468.5 1227.37 472C1226.37 475.5 1224.37 473 1212.9 475C1201.42 477 1185.95 474 1205.91 472Z" fill="#9FC2D8"/>
<path d="M2576.49 433.013L2520.86 434.764L2343.45 436.516L2325.39 430.093L2305 383.084V379.58L2312.87 366.441L2325.39 347.754L2330.64 330.528L2334.42 303.957L2330.64 287.023L2319.28 275.635L2296.85 266H2273.54L2250.24 273.008L2237.13 284.979L2234.8 297.242L2240.04 307.753L2253.15 315.929L2257.52 310.965L2259.85 294.03L2269.46 284.979L2288.4 280.599L2305 284.979L2314.91 297.242L2316.36 312.425L2311.7 325.856L2278.49 366.441L2257.52 402.063L2250.24 426.005L2253.15 464.254L2254.02 471.554L2257.52 483.525L2266.84 494.328L2284.61 499L2590.48 497.832L2600.38 493.16L2609.7 481.773L2611.74 462.211L2605.62 449.071V439.436L2611.74 433.013L2626.89 428.925L2637.96 426.005L2628.64 423.377L2623.69 419.873L2632.13 410.238L2636.79 403.523L2626.89 408.194L2630.39 395.055L2628.64 381.916L2623.69 380.456V385.712L2614.36 408.194L2599.22 423.377L2576.49 433.013Z" fill="white"/>
<path d="M2329.1 440.5C2325.61 441.5 2322.62 431.5 2320.62 430C2297.17 440.833 2254.06 463.8 2269.23 469C2288.19 475.5 2293.68 465.5 2300.16 458.5C2306.65 451.5 2332.6 439.5 2329.1 440.5Z" fill="#9FC2D8"/>
<path d="M2512.72 446C2513.72 443 2528.69 436 2535.67 434.5C2543.49 431.334 2558.23 426.6 2554.63 433C2550.14 441 2521.2 446 2520.7 453C2520.2 460 2507.23 477 2505.74 469.5C2504.24 462 2511.72 449 2512.72 446Z" fill="#9FC2D8"/>
<path d="M2583.57 479C2592.55 474 2587.56 459.5 2585.57 455.5C2594.05 459.5 2598.04 474 2597.04 479C2596.05 484 2603.53 489 2492.76 488.5C2381.99 488 2453.34 483.5 2476.3 483.5C2499.25 483.5 2574.59 484 2583.57 479Z" fill="#9FC2D8"/>
<path d="M2291.18 488.5C2264.24 488.5 2269.73 478 2267.73 474.5C2280.2 488 2298.17 485.5 2331.6 485C2365.03 484.5 2401.45 488.5 2389.98 488.5H2291.18Z" fill="#9FC2D8"/>
<path d="M2367.94 370.998L2394.65 390.007L2426.3 423.347C2431.34 421.884 2442.28 418.55 2445.76 416.913C2450.12 414.866 2458.25 395.856 2463.76 388.253C2469.28 380.649 2473.35 354.914 2481.48 334.442C2489.61 313.971 2500.64 314.264 2504.42 311.339C2508.19 308.415 2515.74 313.094 2513.42 311.339C2511.1 309.584 2513.13 301.103 2513.42 299.349C2513.71 297.594 2511.68 297.594 2510.51 295.254C2509.35 292.915 2516.03 289.405 2518.94 283.849C2521.26 279.404 2525.32 278.097 2527.07 278L2542.46 280.924L2545.65 304.028L2539.26 314.264C2540.71 314.848 2545.59 317.89 2553.49 325.377C2563.36 334.735 2564.81 346.433 2562.78 352.574C2560.75 358.716 2562.78 361.055 2566.27 376.555C2569.75 392.055 2567.72 406.385 2564.81 419.545C2561.91 432.705 2552.04 432.997 2542.46 432.997C2532.87 432.997 2525.03 434.167 2512.84 435.337C2500.64 436.507 2490.48 444.403 2490.19 452.591C2489.9 460.78 2481.48 471.308 2476.54 472.77C2471.6 474.232 2474.22 468.676 2476.54 457.27C2478.4 448.146 2485.06 438.846 2488.16 435.337L2462.6 431.827L2364.74 429.195C2364.16 429.488 2360.62 428.903 2351.1 424.224C2339.19 418.375 2339.19 423.054 2326.41 428.318C2313.64 433.582 2277.92 465.459 2269.79 468.968C2261.66 472.478 2254.11 464.289 2253.24 463.997C2252.54 463.763 2235.33 448.887 2226.82 441.478C2227.59 438.749 2229.31 432.471 2230.01 429.195C2230.71 425.92 2235.53 423.736 2237.85 423.054C2245.21 425.199 2261.02 430.658 2265.44 435.337C2270.87 441.1 2272.64 438.629 2276.31 433.519L2276.47 433.29C2283.73 412.526 2291.57 400.828 2300.57 388.253C2309.57 375.678 2329.03 367.197 2337.16 364.564C2343.66 362.459 2351.29 363.687 2354.29 364.564L2367.94 370.998Z" fill="#EC9262"/>
<path d="M2304.09 382.725C2305.84 366.763 2329.45 361.829 2334.41 307.558C2339.37 253.286 2239.94 256.769 2236.15 291.596C2234.1 304.946 2241.69 306.977 2241.69 309.88C2241.69 312.782 2248.68 302.334 2249.85 304.946C2251.02 307.558 2250.14 316.555 2252.18 315.684C2254.22 314.813 2258.02 311.911 2258.89 297.4C2259.76 282.889 2306.71 268.668 2315.75 300.012C2324.79 331.356 2283.68 343.545 2256.56 404.492C2253.06 411.457 2250.2 421.267 2250.43 428" stroke="black" stroke-width="5"/>
<path d="M2244.89 325.943C2245.82 322.137 2250.53 317.64 2252.76 315.867C2251.89 315.308 2250.2 312.845 2250.43 307.471C2250.66 302.098 2245.67 306.725 2243.14 309.71C2242.56 310.55 2241.45 313.293 2241.68 317.547C2241.97 322.864 2233.52 331.82 2233.81 337.418C2234.1 343.015 2243.43 341.056 2242.26 338.257C2241.1 335.459 2243.72 330.701 2244.89 325.943Z" fill="#F55959" stroke="black" stroke-width="5"/>
<ellipse cx="2245.28" cy="295" rx="5.48857" ry="5" fill="black"/>
<path d="M2523.32 290.776C2523.73 291.638 2525.04 292.617 2526.78 292.145" stroke="black" stroke-width="5" stroke-linecap="round"/>
<path d="M2510.01 284.945C2510.42 285.807 2511.73 286.786 2513.47 286.314" stroke="black" stroke-width="5" stroke-linecap="round"/>
<path d="M2508.85 301.827C2511.73 305.794 2519.25 309.518 2527.62 305.499" stroke="black" stroke-width="5" stroke-linecap="round"/>
<path d="M2512.15 292.894C2513.88 290.55 2515.41 288.89 2517.33 287.327C2518.58 283.616 2523.44 276.604 2532.88 278.245C2544.69 280.296 2549.01 287.913 2546.42 299.926C2543.83 311.939 2538.65 320.142 2526.84 317.505C2515.03 314.869 2509.84 310.181 2514.74 298.168C2512.15 297.582 2509.9 295.951 2512.15 292.894Z" stroke="black" stroke-width="5" stroke-linecap="round"/>
<path d="M2522.01 268.081C2515.54 273.619 2522.01 277.426 2524.06 277.772C2525.99 278.465 2529.78 280.472 2529.51 282.964C2529.17 286.079 2543.47 281.926 2540.41 289.54C2537.34 297.155 2545.18 291.617 2542.11 298.54C2539.04 305.462 2544.49 306.847 2546.2 308.923C2547.9 311 2547.9 313.077 2556.08 306.847C2564.25 300.616 2558.12 296.117 2554.37 294.732C2557.78 293.694 2558.12 293.694 2559.14 286.079C2560.16 278.465 2556.42 277.08 2549.26 278.465C2553.35 275.142 2548.92 271.081 2546.2 269.465C2540.07 264.966 2535.98 268.773 2534.62 272.58C2534.62 269.465 2528.49 262.543 2522.01 268.081Z" fill="#A7C79C"/>
<path d="M2540.51 339.085C2567.03 326.216 2580.25 432.092 2553.33 432.092C2524.78 432.092 2490.97 433.554 2490.1 450.81C2489.22 468.066 2470.57 482.105 2473.64 465.726C2476.93 448.214 2488.32 430.136 2501.04 426.535C2545.47 413.958 2543.43 409.279 2518.07 367.455" stroke="black" stroke-width="5" stroke-linecap="round"/>
<path d="M2540.16 315C2543.13 315.89 2573.14 331.014 2563.04 358" stroke="black" stroke-width="5" stroke-linecap="round"/>
<path d="M2513.5 311.25C2508.56 309.793 2490.26 312.708 2482.7 332.631C2473.37 357.234 2466.37 394.919 2448.04 413.285" stroke="black" stroke-width="5" stroke-linecap="round"/>
<path d="M2319.17 372.02C2359.67 348.965 2373.51 381.531 2406.44 395.652L2364.33 429.659C2360.16 428.507 2361.51 427.873 2348.45 421.878C2332.14 414.385 2279.1 464.243 2268.32 467.701C2257.54 471.16 2229.57 443.493 2227.23 440.899C2224.9 438.305 2232.77 419.284 2238.89 422.743C2245.01 426.201 2256.67 427.93 2268.32 436.576C2279.98 445.222 2278.66 395.076 2319.17 372.02Z" stroke="black" stroke-width="5"/>
<path d="M2253.76 463.79C2256.38 479.579 2258.42 498 2290.14 498C2321.87 498 2560.27 498 2584.13 498C2608 498 2619.36 469.053 2609.17 452.387C2598.98 435.721 2611.21 431.628 2624.59 428.996C2637.98 426.365 2643.22 426.365 2635.07 423.148C2626.92 419.932 2619.94 422.563 2625.47 416.716C2631 410.868 2642.64 400.049 2636.53 402.681C2630.42 405.312 2623.14 410.575 2627.51 404.435C2631.87 398.295 2632.16 381.921 2627.21 379.582C2622.27 377.243 2626.05 382.214 2623.14 389.816C2620.23 397.418 2614.7 412.915 2598.4 423.148C2582.1 433.382 2570.45 433.09 2555.03 433.09C2542.69 433.09 2527.76 433.09 2521.84 433.09" stroke="black" stroke-width="5"/>
<path fill-rule="evenodd" clip-rule="evenodd" d="M2397.97 388.697C2392.86 387.792 2388.19 390.096 2384.23 393.408C2380.24 396.735 2376.58 401.396 2373.32 406.039C2371.46 408.7 2369.59 411.561 2367.89 414.184C2366.69 416.017 2365.57 417.734 2364.58 419.183C2363.32 421.04 2362.2 422.562 2361.22 423.67C2360.16 424.866 2359.56 425.238 2359.37 425.301C2358.56 425.568 2357.61 425.983 2356.92 426.73C2356.55 427.144 2356.2 427.711 2356.09 428.424C2355.97 429.142 2356.12 429.788 2356.35 430.298C2356.77 431.207 2357.53 431.817 2358.06 432.185C2358.65 432.599 2359.35 432.969 2360.07 433.297C2362.89 434.591 2367.09 435.757 2370.02 436.436L2370.3 436.5H2488.95L2482.75 431.979C2466.86 420.383 2453.1 413.195 2448.09 411.007L2446.97 410.519L2433.08 418.086C2429.8 413.513 2424.85 407.386 2419.21 401.908C2412.87 395.747 2405.26 389.988 2397.97 388.697Z" fill="#A7C79C"/>
<path d="M2488.27 435.858C2458.35 435.516 2356.98 438.591 2343.04 435.858C2329.1 433.125 2326.19 429.025 2325.61 428" stroke="black" stroke-width="5"/>
<path d="M1511.38 412.668C1510.67 431.681 1487.04 435.797 1466.32 424.053C1390.09 391.605 1375.39 433 1357.42 443C1339.46 453 1321 448.5 1309.52 422C1298.05 395.5 1272.1 424 1286.07 419.5C1295.03 416.613 1308.05 430.198 1295.05 431.5C1286.07 432.4 1282.58 434.5 1301.04 441C1322.04 448.392 1312.52 474.5 1326.49 477.685C1337.66 480.233 1476.27 478.747 1544.18 477.685C1552.38 463.367 1556.4 442.95 1545.82 419.006C1524.03 369.715 1490.99 359.857 1498.25 334.508C1500.71 325.005 1509.25 312 1527.07 312C1541.54 312 1550.02 313.5 1563.99 301C1564.49 296.5 1556.51 302.5 1556.01 296.5C1558.17 294.167 1557.01 295.5 1560.5 289.5C1562.28 286.446 1548.53 273 1530.06 283C1510.45 293.625 1479.37 296.72 1483.26 340.61C1487.24 384.502 1512.08 393.656 1511.38 412.668Z" fill="white" stroke="black" stroke-width="5" stroke-linecap="round"/>
<path d="M1523.58 464C1540.34 461.6 1539.54 442 1537.05 432.5C1540.54 443 1543.83 465 1529.07 469C1510.6 474 1450.23 469 1456.22 469C1462.2 469 1502.62 467 1523.58 464Z" fill="#9FC2D8"/>
<path d="M1332.48 472C1322 471.5 1322.5 459.5 1321 454.5C1322 455.167 1325.69 458 1332.48 464C1339.26 470 1354.6 471.833 1361.42 472C1355.26 472.167 1340.86 472.4 1332.48 472Z" fill="#9FC2D8"/>
<path d="M1408.32 458.5C1413.31 458.5 1428.78 454.5 1446.24 451C1444.24 450.333 1437.36 449.4 1425.78 451C1411.31 453 1402.33 454.5 1405.82 454.5C1409.32 454.5 1403.33 458.5 1408.32 458.5Z" fill="#9FC2D8"/>
<path d="M1448.73 464C1432.27 470 1394.85 470 1385.37 470C1376.2 470 1381.03 464.386 1383.16 464.019C1381.1 464.04 1371.9 463.819 1374.39 460.5C1377.38 456.5 1381.37 458 1376.88 454.5C1373.29 451.7 1382.37 449.333 1387.36 448.5C1386.2 450.5 1380.38 458 1387.36 456.5C1394.35 455 1396.34 456 1393.35 461C1392.35 462.667 1391.45 465.8 1395.84 465C1400.23 464.2 1432.93 464 1448.73 464Z" fill="#9FC2D8"/>
<path d="M1572.98 294.5C1569.81 295.238 1566.02 298.231 1564.55 300C1564.08 299.308 1562.04 297.97 1557.57 298.155C1553.1 298.339 1556.95 294.387 1559.43 292.388C1560.13 291.926 1561.45 289.316 1564.99 289.5C1569.41 289.731 1577.82 284.775 1582.47 285.006C1587.13 285.237 1585.5 292.618 1583.17 291.696C1580.84 290.773 1576.93 293.577 1572.98 294.5Z" fill="#F55959" stroke="black" stroke-width="5" stroke-linecap="round"/>
<path d="M1395.34 435.5C1386.86 440.5 1374.39 446.5 1382.87 446C1391.35 445.5 1391.35 451 1382.87 455C1374.39 459 1406.32 454.5 1397.34 459C1388.36 463.5 1380.38 468 1411.81 463.5C1443.25 459 1477.17 453.5 1468.19 446" stroke="black" stroke-width="5" stroke-linecap="round"/>
<ellipse cx="1547.03" cy="288.5" rx="2.4948" ry="2.5" fill="black"/>
<ellipse rx="2.49711" ry="2.4977" transform="matrix(0.745471 0.666538 -0.664995 0.746848 1559.77 281.843)" fill="black"/>
<path d="M1539.54 288C1540.04 285.5 1544.53 282 1547.53 282" stroke="black" stroke-width="5" stroke-linecap="round"/>
<path d="M1554.51 276.477C1556.55 274.944 1562.22 275.329 1564.46 277.326" stroke="black" stroke-width="5" stroke-linecap="round"/>
</svg>
