<svg width="2325" height="218" viewBox="0 0 2325 218" fill="none" xmlns="http://www.w3.org/2000/svg">
<rect width="2325" height="218" fill="#4E4D4D"/>
<path d="M0 0V114.99C12.249 124.945 26.0041 124.085 37.9881 112.38C50.9413 99.7293 65.9453 99.7293 78.8984 112.38C91.8516 125.031 106.874 125.013 119.827 112.362C132.757 99.734 147.812 99.7748 160.742 112.403C173.638 124.998 188.64 125.014 201.519 112.345C214.357 99.7163 229.247 99.6313 242.118 112.113L242.586 112.567C255.514 125.104 270.562 124.967 283.473 112.357C296.346 99.7847 311.358 99.7336 324.214 112.38C337.07 125.027 352.082 124.976 364.955 112.403C377.866 99.7929 393.088 99.8255 406.016 112.362C418.967 124.922 434.138 125.031 447.073 112.398C460.026 99.747 475.048 99.7293 488.001 112.38C500.954 125.031 515.958 125.031 528.912 112.38C541.865 99.7293 556.869 99.7293 569.822 112.38C582.775 125.031 597.779 125.031 610.732 112.38C623.685 99.7293 638.708 99.7472 651.661 112.398C664.591 125.026 679.628 125.003 692.558 112.375C705.477 99.7577 720.487 99.7595 733.389 112.451C746.208 125.061 761.073 125.188 773.942 112.796L774.924 111.85C787.713 99.535 802.49 99.7037 815.213 112.31C828.017 124.997 843.035 124.947 855.873 112.408C868.761 99.8214 884.016 99.8301 896.921 112.344C909.872 124.903 925.062 125.031 937.996 112.398C950.949 99.747 965.99 99.7472 978.943 112.398C991.873 125.026 1006.93 124.986 1019.86 112.357C1032.75 99.7623 1047.76 99.7466 1060.64 112.416C1073.47 125.044 1088.36 125.129 1101.23 112.647L1101.67 112.229C1114.62 99.6695 1129.63 99.7477 1142.57 112.38C1149.33 118.986 1156.66 122.146 1163.97 121.85C1170.75 121.662 1177.51 118.506 1183.79 112.38C1196.75 99.7293 1211.77 99.7293 1224.74 112.38C1237.7 125.031 1252.74 125.013 1265.7 112.362C1278.64 99.734 1293.71 99.7748 1306.65 112.403C1319.56 124.998 1334.57 125.014 1347.46 112.345C1360.31 99.7163 1375.21 99.6313 1388.1 112.113L1388.56 112.567C1401.5 125.104 1416.56 124.967 1429.49 112.357C1442.37 99.7847 1457.4 99.7336 1470.26 112.38C1483.13 125.027 1498.15 124.976 1511.04 112.403C1523.96 99.7929 1539.2 99.8255 1552.14 112.362C1565.1 124.922 1580.28 125.031 1593.23 112.398C1606.19 99.747 1621.23 99.7293 1634.19 112.38C1647.16 125.031 1662.17 125.031 1675.14 112.38C1688.1 99.7293 1703.12 99.7293 1716.08 112.38C1729.05 125.031 1744.06 125.031 1757.03 112.38C1769.99 99.7293 1785.03 99.7472 1797.99 112.398C1810.93 125.026 1825.98 125.003 1838.92 112.375C1851.85 99.7577 1866.88 99.7595 1879.79 112.451C1892.62 125.061 1907.5 125.188 1920.38 112.796L1921.36 111.85C1934.16 99.535 1948.95 99.7037 1961.68 112.31C1974.5 124.997 1989.53 124.947 2002.38 112.408C2015.28 99.8214 2030.55 99.8301 2043.46 112.344C2056.42 124.903 2071.63 125.031 2084.57 112.398C2097.54 99.747 2112.59 99.7472 2125.56 112.398C2138.5 125.026 2153.56 124.986 2166.51 112.357C2179.41 99.7623 2194.43 99.7466 2207.32 112.416C2220.17 125.044 2235.07 125.129 2247.95 112.647L2248.38 112.229C2261.35 99.6695 2276.37 99.7477 2289.32 112.38C2300.55 123.341 2313.35 124.815 2325 116.758V0H0Z" fill="#ADC8E6"/>
</svg>
