<svg width="2325" height="122" viewBox="0 0 2325 122" fill="none" xmlns="http://www.w3.org/2000/svg">
<path d="M2325 122L2325 7.01043C2312.75 -2.94477 2299 -2.08439 2287.01 9.61998C2274.06 22.2709 2259.05 22.2709 2246.1 9.61998C2233.15 -3.03096 2218.13 -3.01302 2205.17 9.63792C2192.24 22.2662 2177.19 22.2254 2164.26 9.5971C2151.36 -2.99792 2136.36 -3.01362 2123.48 9.6554C2110.64 22.2838 2095.75 22.3688 2082.88 9.88712L2082.41 9.43289C2069.49 -3.1038 2054.44 -2.96729 2041.53 9.64273C2028.65 22.2155 2013.64 22.2666 2000.79 9.61996C1987.93 -3.02663 1972.92 -2.97553 1960.05 9.59719C1947.13 22.2072 1931.91 22.1746 1918.98 9.63793C1906.03 -2.92135 1890.86 -3.03053 1877.93 9.60219C1864.97 22.2531 1849.95 22.2709 1837 9.61994C1824.05 -3.031 1809.04 -3.031 1796.09 9.61994C1783.14 22.2709 1768.13 22.2709 1755.18 9.61994C1742.22 -3.031 1727.22 -3.031 1714.27 9.61993C1701.31 22.2709 1686.29 22.2529 1673.34 9.60199C1660.41 -3.02625 1645.37 -3.00292 1632.44 9.62531C1619.52 22.2424 1604.51 22.2406 1591.61 9.54941C1578.79 -3.06103 1563.93 -3.18757 1551.06 9.20419L1550.08 10.1503C1537.29 22.4652 1522.51 22.2965 1509.79 9.69027C1496.98 -2.99643 1481.97 -2.94695 1469.13 9.59165C1456.24 22.1787 1440.98 22.17 1428.08 9.65606C1415.13 -2.90322 1399.94 -3.03058 1387 9.60214C1374.05 22.2531 1359.01 22.2529 1346.06 9.60196C1333.13 -3.02628 1318.07 -2.98546 1305.14 9.64279C1292.25 22.2378 1277.24 22.2535 1264.36 9.58448C1251.53 -3.04397 1236.64 -3.12895 1223.77 9.35276L1223.33 9.77135C1210.38 22.3306 1195.37 22.2524 1182.43 9.61972C1175.67 3.01408 1168.34 -0.146013 1161.03 0.149656C1154.25 0.338315 1147.49 3.49369 1141.21 9.61988C1128.25 22.2708 1113.23 22.2708 1100.26 9.61988C1087.3 -3.03106 1072.26 -3.01312 1059.3 9.63782C1046.36 22.2661 1031.29 22.2253 1018.35 9.597C1005.44 -2.99802 990.428 -3.01372 977.538 9.6553C964.689 22.2837 949.786 22.3687 936.904 9.88702L936.435 9.43279C923.496 -3.10391 908.435 -2.96739 895.513 9.64263C882.629 22.2154 867.605 22.2665 854.737 9.61986C841.87 -3.02673 826.845 -2.97563 813.961 9.59709C801.039 22.2071 785.804 22.1745 772.865 9.63783C759.902 -2.92145 744.718 -3.03063 731.773 9.60209C718.808 22.253 703.773 22.2708 690.809 9.61984C677.845 -3.0311 662.828 -3.0311 649.864 9.61984C636.899 22.2708 621.882 22.2708 608.918 9.61984C595.954 -3.0311 580.937 -3.0311 567.973 9.61983C555.008 22.2708 539.973 22.2528 527.009 9.60189C514.068 -3.02635 499.017 -3.00302 486.076 9.62521C473.146 22.2423 458.123 22.2405 445.211 9.54931C432.38 -3.06113 417.503 -3.18767 404.623 9.20409L403.639 10.1502C390.839 22.4651 376.05 22.2964 363.316 9.69017C350.501 -2.99653 335.47 -2.94705 322.621 9.59155C309.722 22.1786 294.453 22.1699 281.538 9.65596C268.575 -2.90332 253.372 -3.03068 240.427 9.60204C227.462 22.253 212.409 22.2528 199.445 9.60186C186.504 -3.02638 171.435 -2.98556 158.494 9.64269C145.587 22.2377 130.572 22.2534 117.682 9.58438C104.834 -3.04407 89.9309 -3.12905 77.0486 9.35266L76.6165 9.77125C63.6543 22.3305 48.6265 22.2523 35.6809 9.61962C24.4492 -1.34056 11.6467 -2.81517 1.02073e-05 5.24245L0 122L2325 122Z" fill="#ADC8E6"/>
</svg>
