<svg width="2325" height="122" viewBox="0 0 2325 122" fill="none" xmlns="http://www.w3.org/2000/svg">
<path d="M2325 122L2325 7.01033C2312.75 -2.94487 2299 -2.08449 2287.01 9.61988C2274.06 22.2708 2259.05 22.2708 2246.1 9.61988C2233.15 -3.03106 2218.13 -3.01312 2205.17 9.63782C2192.24 22.2661 2177.19 22.2253 2164.26 9.597C2151.36 -2.99802 2136.36 -3.01372 2123.48 9.6553C2110.64 22.2837 2095.75 22.3687 2082.88 9.88702L2082.41 9.43279C2069.49 -3.1039 2054.44 -2.96739 2041.53 9.64263C2028.65 22.2154 2013.64 22.2665 2000.79 9.61986C1987.93 -3.02673 1972.92 -2.97563 1960.05 9.59709C1947.13 22.2071 1931.91 22.1745 1918.98 9.63783C1906.03 -2.92145 1890.86 -3.03063 1877.93 9.60209C1864.97 22.253 1849.95 22.2708 1837 9.61985C1824.05 -3.0311 1809.04 -3.0311 1796.09 9.61984C1783.14 22.2708 1768.13 22.2708 1755.18 9.61984C1742.22 -3.0311 1727.22 -3.0311 1714.27 9.61983C1701.31 22.2708 1686.29 22.2528 1673.34 9.60189C1660.41 -3.02635 1645.37 -3.00302 1632.44 9.62521C1619.52 22.2423 1604.51 22.2405 1591.61 9.54931C1578.79 -3.06113 1563.93 -3.18767 1551.06 9.20409L1550.08 10.1502C1537.29 22.4651 1522.51 22.2964 1509.79 9.69018C1496.98 -2.99653 1481.97 -2.94705 1469.13 9.59155C1456.24 22.1787 1440.98 22.1699 1428.08 9.65596C1415.13 -2.90332 1399.94 -3.03067 1387 9.60205C1374.05 22.253 1359.01 22.2528 1346.06 9.60186C1333.13 -3.02638 1318.07 -2.98556 1305.14 9.64269C1292.25 22.2377 1277.24 22.2534 1264.36 9.58438C1251.53 -3.04407 1236.64 -3.12905 1223.77 9.35266L1223.33 9.77125C1210.38 22.3305 1195.37 22.2523 1182.43 9.61962C1175.67 3.01398 1168.34 -0.146112 1161.03 0.149556C1154.25 0.338216 1147.49 3.4936 1141.21 9.61978C1128.25 22.2707 1113.23 22.2707 1100.26 9.61978C1087.3 -3.03116 1072.26 -3.01322 1059.3 9.63772C1046.36 22.266 1031.29 22.2252 1018.35 9.5969C1005.44 -2.99812 990.428 -3.01382 977.538 9.6552C964.689 22.2836 949.786 22.3686 936.904 9.88692L936.435 9.43269C923.496 -3.104 908.435 -2.96749 895.513 9.64253C882.629 22.2153 867.605 22.2664 854.737 9.61976C841.87 -3.02683 826.845 -2.97573 813.961 9.59699C801.039 22.207 785.804 22.1744 772.865 9.63773C759.902 -2.92155 744.718 -3.03073 731.773 9.60199C718.808 22.2529 703.773 22.2707 690.809 9.61975C677.845 -3.0312 662.828 -3.0312 649.864 9.61974C636.899 22.2707 621.882 22.2707 608.918 9.61974C595.954 -3.0312 580.937 -3.0312 567.973 9.61973C555.008 22.2707 539.973 22.2527 527.009 9.60179C514.068 -3.02645 499.017 -3.00312 486.076 9.62511C473.146 22.2422 458.123 22.2404 445.211 9.54921C432.38 -3.06123 417.503 -3.18777 404.623 9.20399L403.639 10.1501C390.839 22.465 376.05 22.2963 363.316 9.69008C350.501 -2.99663 335.47 -2.94715 322.621 9.59145C309.722 22.1786 294.453 22.1698 281.538 9.65586C268.575 -2.90342 253.372 -3.03077 240.427 9.60194C227.462 22.2529 212.409 22.2527 199.445 9.60176C186.504 -3.02648 171.435 -2.98566 158.494 9.64259C145.587 22.2376 130.572 22.2533 117.682 9.58428C104.834 -3.04417 89.9309 -3.12915 77.0486 9.35256L76.6165 9.77115C63.6543 22.3304 48.6265 22.2522 35.6809 9.61952C24.4492 -1.34066 11.6467 -2.81527 1.02073e-05 5.24235L0 122L2325 122Z" fill="#4E4D4D"/>
</svg>
