<svg width="2294" height="122" viewBox="0 0 2294 122" fill="none" xmlns="http://www.w3.org/2000/svg">
<g clip-path="url(#clip0_34:112)">
<path d="M2310 122V7.01039C2297.75 -2.94481 2284 -2.08443 2272.01 9.61994C2259.06 22.2709 2244.05 22.2709 2231.1 9.61994C2218.15 -3.031 2203.13 -3.01306 2190.17 9.63788C2177.24 22.2662 2162.19 22.2254 2149.26 9.59706C2136.36 -2.99796 2121.36 -3.01366 2108.48 9.65536C2095.64 22.2838 2080.75 22.3688 2067.88 9.88708L2067.41 9.43285C2054.49 -3.10384 2039.44 -2.96733 2026.53 9.64269C2013.65 22.2155 1998.64 22.2666 1985.79 9.61992C1972.93 -3.02667 1957.92 -2.97557 1945.05 9.59715C1932.13 22.2072 1916.91 22.1746 1903.98 9.63789C1891.03 -2.92139 1875.86 -3.03057 1862.93 9.60215C1849.97 22.2531 1834.95 22.2709 1822 9.6199C1809.05 -3.03104 1794.04 -3.03104 1781.09 9.6199C1768.14 22.2709 1753.13 22.2709 1740.18 9.6199C1727.22 -3.03104 1712.22 -3.03104 1699.27 9.61989C1686.31 22.2709 1671.29 22.2529 1658.34 9.60195C1645.41 -3.02629 1630.37 -3.00296 1617.44 9.62527C1604.52 22.2424 1589.51 22.2406 1576.61 9.54937C1563.79 -3.06107 1548.93 -3.18761 1536.06 9.20415L1535.08 10.1503C1522.29 22.4652 1507.51 22.2965 1494.79 9.69023C1481.98 -2.99647 1466.97 -2.94699 1454.13 9.59161C1441.24 22.1787 1425.98 22.17 1413.08 9.65602C1400.13 -2.90326 1384.94 -3.03062 1372 9.6021C1359.05 22.2531 1344.01 22.2529 1331.06 9.60192C1318.13 -3.02632 1303.07 -2.9855 1290.14 9.64275C1277.25 22.2378 1262.24 22.2535 1249.36 9.58444C1236.53 -3.04401 1221.64 -3.12899 1208.77 9.35272L1208.33 9.77131C1195.38 22.3306 1180.37 22.2524 1167.43 9.61968C1160.67 3.01404 1153.34 -0.146053 1146.03 0.149616C1139.25 0.338275 1132.49 3.49365 1126.21 9.61984C1113.25 22.2708 1098.23 22.2708 1085.26 9.61984C1072.3 -3.0311 1057.26 -3.01316 1044.3 9.63778C1031.36 22.2661 1016.29 22.2253 1003.35 9.59696C990.44 -2.99806 975.428 -3.01376 962.538 9.65526C949.689 22.2837 934.786 22.3687 921.904 9.88698L921.435 9.43275C908.496 -3.10395 893.435 -2.96743 880.513 9.64259C867.629 22.2154 852.605 22.2665 839.737 9.61982C826.87 -3.02677 811.845 -2.97567 798.961 9.59705C786.039 22.2071 770.804 22.1745 757.865 9.63779C744.902 -2.92149 729.718 -3.03067 716.773 9.60205C703.808 22.253 688.773 22.2708 675.809 9.6198C662.845 -3.03114 647.828 -3.03114 634.864 9.6198C621.899 22.2708 606.882 22.2708 593.918 9.6198C580.954 -3.03114 565.937 -3.03114 552.973 9.61979C540.008 22.2708 524.973 22.2528 512.009 9.60185C499.068 -3.02639 484.017 -3.00306 471.076 9.62517C458.146 22.2423 443.123 22.2405 430.211 9.54927C417.38 -3.06117 402.503 -3.18771 389.623 9.20405L388.639 10.1502C375.839 22.4651 361.05 22.2964 348.316 9.69013C335.501 -2.99657 320.47 -2.94709 307.621 9.59151C294.722 22.1786 279.453 22.1699 266.538 9.65592C253.575 -2.90336 238.372 -3.03072 225.427 9.602C212.462 22.253 197.409 22.2528 184.445 9.60182C171.504 -3.02642 156.435 -2.9856 143.494 9.64265C130.587 22.2377 115.572 22.2534 102.682 9.58434C89.834 -3.04411 74.9309 -3.12909 62.0486 9.35262L61.6165 9.77121C48.6543 22.3305 33.6265 22.2523 20.6809 9.61958C9.4492 -1.3406 -3.3533 -2.81521 -15 5.24241L-15 122H2310Z" fill="#4E4D4D"/>
</g>
<defs>
<clipPath id="clip0_34:112">
<rect width="2294" height="122" fill="white"/>
</clipPath>
</defs>
</svg>
